# xmcd CD Database Entry
#
# Track frame offsets:
# 150
# 21798
# 39615
# 57228
# 68115
# 84190
# 101628
# 119717
# 131473
# 144088
#
# Disc length: 2122 seconds
#
# Revision: 1
# Processed by: cddbd v1.4b41PL1 Copyright (c) Steve Scherf et al.
# Submitted via: tcd 2.0b
#
DISCID=8208480a
DTITLE=Michael Murphey - Blue Sky - Night Thunder
DYEAR=1900
DGENRE=
TTITLE0=Wildfire
TTITLE1=Carolina in the Pines
TTITLE2=Desert Rat
TTITLE3=Wild Bird
TTITLE4=Blue Sky Riding Song
TTITLE5=Medicine Man
TTITLE6=Secret Mountain Hideout
TTITLE7=Without My Lady There
TTITLE8=Night Thunder
TTITLE9=Rings of Life
EXTD=
EXTT0=
EXTT1=
EXTT2=
EXTT3=
EXTT4=
EXTT5=
EXTT6=
EXTT7=
EXTT8=
EXTT9=
PLAYORDER=
